<svg xmlns="http://www.w3.org/2000/svg" xmlns:xlink="http://www.w3.org/1999/xlink" fill="none" version="1.1" width="44" height="44" viewBox="0 0 44 44"><defs><linearGradient x1="0.5" y1="0" x2="0.5" y2="1" id="master_svg0_86_17778"><stop offset="2.380894310772419%" stop-color="#4587F6" stop-opacity="1"/><stop offset="98.09517860412598%" stop-color="#4D84FF" stop-opacity="1"/></linearGradient><linearGradient x1="0.5" y1="0" x2="0.5" y2="1" id="master_svg1_86_17869"><stop offset="0%" stop-color="#C4D8FF" stop-opacity="1"/><stop offset="99.52375292778015%" stop-color="#FFFFFF" stop-opacity="1"/></linearGradient></defs><g><rect x="0" y="0" width="44" height="44" rx="6" fill="url(#master_svg0_86_17778)" fill-opacity="1"/><g><path d="M16.9326,13.12973C16.9326,13.45606,17.21443,13.73788,17.54075,13.73788L17.54075,13.70822L26.307000000000002,13.70822C26.6333,13.70822,26.915100000000002,13.42639,26.915100000000002,13.10007L26.915100000000002,10.608147C26.915100000000002,10.281824,26.6333,10,26.307000000000002,10L17.54075,10C17.21443,10,16.9326,10.281824,16.9326,10.608147L16.9326,13.12973ZM28.2506,12.10669L31.8698,12.10669C32.403800000000004,12.10669,32.8488,12.566510000000001,32.834,13.08566L32.834,33.0062C32.834,33.881299999999996,32.3297,34,31.8995,34L11.978969,34C11.430153,34,11,33.555,11,33.021L11,13.1005C11,12.551680000000001,11.444986,12.12153,11.978969,12.12153L15.598189999999999,12.12153L15.598189999999999,14.12396C15.598189999999999,14.58378,15.98384,14.969439999999999,16.44366,14.969439999999999L27.4051,14.969439999999999C27.865,14.969439999999999,28.2506,14.59862,28.2506,14.12396L28.2506,12.10669ZM20.923189999999998,27.7999L27.9688,20.7691C28.1616,20.5763,28.2506,20.3538,28.2506,20.101599999999998C28.2506,19.849449999999997,28.1468,19.62696,27.954,19.43413C27.5831,19.06331,27.0047,19.06331,26.6338,19.43413L20.27054,25.7974L17.15564,22.7122C16.78482,22.3414,16.20634,22.3414,15.83551,22.7122C15.464690000000001,23.083,15.464690000000001,23.6615,15.83551,24.0323L19.60306,27.7999C19.97388,28.1707,20.55237,28.1707,20.923189999999998,27.7999Z" fill-rule="evenodd" fill="url(#master_svg1_86_17869)" fill-opacity="1"/></g></g></svg>